# xmcd
#
# Track frame offsets: 
#        150
#        16423
#        33925
#        56100
#        74855
#        92868
#        115385
#        135048
#        156110
#        173855
#
# Disc length: 2552 seconds
#
# Revision: 1
# Processed by: cddbd v1.5.2PL0 Copyright (c) Steve Scherf et al.
# Submitted via: ExactAudioCopy v0.99pb4
#
DISCID=8609f60a
DTITLE=Average White Band - Shine (Japanese Edition)
DYEAR=1980
DGENRE=Jazz+Funk
TTITLE0=Our Time Has Come
TTITLE1=For You, For Love
TTITLE2=Let's Go Round Again
TTITLE3=Whatcha' Gonna Do For Me
TTITLE4=Into The Night
TTITLE5=Catch Me (Before I Have To Testify)
TTITLE6=Help Is On The Way
TTITLE7=If Love Only Lasts For One Night
TTITLE8=Shine
TTITLE9=Miss Sun
EXTD=YEAR: 1980
EXTT0=
EXTT1=
EXTT2=
EXTT3=
EXTT4=
EXTT5=
EXTT6=
EXTT7=
EXTT8=
EXTT9=
PLAYORDER=
